<?xml version="1.0" encoding="utf-8"?>
<!-- Generator: Adobe Illustrator 19.2.1, SVG Export Plug-In . SVG Version: 6.00 Build 0)  -->
<svg version="1.1" id="Layer_1" xmlns="http://www.w3.org/2000/svg" xmlns:xlink="http://www.w3.org/1999/xlink" x="0px" y="0px"
	 viewBox="0 0 482.3 263.7" style="enable-background:new 0 0 482.3 263.7;" xml:space="preserve">
<path d="M354.4,235.9l-59.7-59.7c5.1-14.8,19-25.4,35.5-25.4c1.2,0,2.5,0,3.5,0v-34.1c-1,0-2.3,0-3.6,0c-18.7,0-32.4,5.3-48.4,19.1
	c-0.3,0.2-2.2,1.9-2.4,2.1c-12.5,12.5-29.6,20.7-47.6,23.2v7.2c0,0,12.9,5,25.8,11.9c0.6,2.6,1,5.3,1,8.1c0,21.6-18.2,39-40.2,37.6
	c-18.4-1.2-33.4-15.9-34.9-34.3c-1.8-21.6,14.8-39.9,35.8-40.9c1-0.1,2.2-0.2,2.6-0.2c39.8-0.4,71.8-33.3,70.8-73.4
	c-0.9-38-31.9-69-69.9-69.9c-40.4-0.9-73.4,31.5-73.4,71.6c0,22,9.9,41.6,25.4,54.7c-16.2,13.7-26.2,34.3-25.4,57.3
	c1.3,37.4,31.7,67.7,69,69c30.7,1.1,57.2-17.1,68.5-43.5l43.5,43.5L354.4,235.9z M221,41.2c20.8,0,37.7,16.9,37.7,37.7
	c0,20.8-16.9,37.7-37.7,37.7c-20.8,0-37.7-16.9-37.7-37.7C183.3,58.1,200.2,41.2,221,41.2z" fill="rgba(255,255,255,0.9)" />
<g>
	<path d="M111.6,181.4c0,5.7-1.1,10.8-3.4,15.1c-2.3,4.3-5.5,8-9.5,10.9c-4,2.9-8.7,5.2-14,6.7c-5.3,1.5-10.9,2.3-16.9,2.3H2.2V80.7
		h72.7c4.7,0,9,1,12.8,3.1c3.8,2,7.1,4.7,9.8,7.9c2.7,3.3,4.7,7,6.2,11.1c1.5,4.1,2.2,8.3,2.2,12.5c0,6.6-1.7,12.8-5,18.6
		c-3.3,5.8-8.2,10.1-14.5,12.9c7.8,2.3,13.9,6.4,18.5,12.3C109.3,165.1,111.6,172.5,111.6,181.4z M28.6,103.2v34.2h35.2
		c4.5,0,8.3-1.5,11.4-4.6c3.1-3.1,4.7-7.3,4.7-12.6c0-5.2-1.4-9.4-4.3-12.4c-2.9-3.1-6.4-4.6-10.6-4.6H28.6z M85,176.5
		c0-2.4-0.4-4.7-1.2-7c-0.8-2.2-1.9-4.2-3.3-5.8c-1.4-1.7-3.1-3-5-3.9c-1.9-1-4-1.4-6.3-1.4H28.6v35.8h39.2c2.4,0,4.7-0.4,6.8-1.3
		c2.1-0.9,3.9-2.1,5.5-3.7c1.5-1.6,2.7-3.5,3.6-5.6C84.6,181.2,85,178.9,85,176.5z" fill="rgba(255,255,255,0.9)" />
</g>
<g>
	<path d="M383.9,80.7l33.5,65.4l34-65.4h28.5L430.6,169v47.4h-26.2v-47.8l-49.2-88H383.9z" fill="rgba(255,255,255,0.9)" />
</g>
</svg>
